<?xml version="1.0" encoding="UTF-8" standalone="no"?>
<svg
   width="64"
   height="64"
   viewBox="0 0 64 64"
   fill="none"
   xmlns="http://www.w3.org/2000/svg"
   xmlns:svg="http://www.w3.org/2000/svg">
  <!-- Background with theme gradient -->
  <circle
     cx="32"
     cy="32"
     r="30"
     fill="url(#bgGradient)"
     id="circle1" />
  <circle
     cx="32"
     cy="32"
     r="28"
     stroke="rgba(255,255,255,0.1)"
     stroke-width="1"
     fill="none"
     id="circle3" />
  <defs
     id="defs5">
    <linearGradient
       id="bgGradient"
       x1="32"
       y1="2"
       x2="32"
       y2="62"
       gradientUnits="userSpaceOnUse">
      <stop
         stop-color="rgb(30, 20, 80)"
         id="stop3" />
      <stop
         offset="0.5"
         stop-color="rgb(80, 60, 120)"
         id="stop4" />
      <stop
         offset="1"
         stop-color="rgb(30, 20, 80)"
         id="stop5" />
    </linearGradient>
    <!-- Morning to Noon gradient -->
    <linearGradient
       id="path4Gradient"
       x1="18"
       y1="12"
       x2="32"
       y2="40"
       gradientUnits="userSpaceOnUse">
      <stop
         stop-color="rgb(255, 230, 100)"
         offset="0" />
      <stop
         stop-color="rgb(150, 200, 255)"
         offset="1" />
    </linearGradient>
    <!-- Afternoon to Evening gradient -->
    <linearGradient
       id="path5Gradient"
       x1="35"
       y1="14"
       x2="48"
       y2="38"
       gradientUnits="userSpaceOnUse">
      <stop
         stop-color="rgb(255, 140, 60)"
         offset="0" />
      <stop
         stop-color="rgb(255, 160, 140)"
         offset="1" />
    </linearGradient>
  </defs>
  <path
     style="fill:url(#path4Gradient)"
     id="path4"
     d="m 18.265949,13.252773 c 0.0053,0.07206 0.01744,0.143939 0.01599,0.216181 -0.0041,0.201777 -0.02186,0.403043 -0.03251,0.60458 -0.07225,1.367599 -0.02303,0.625201 -0.143881,2.142112 -0.131984,1.656607 -0.06848,0.902048 -0.22319,2.614715 -0.164561,1.867296 -0.183519,3.74858 0.01193,5.61447 0.08088,0.772144 0.174782,1.224833 0.308825,1.97304 0.06286,0.273298 0.102125,0.553118 0.188571,0.819895 0.221893,0.684771 0.514214,1.236178 1.031651,1.760817 0.426739,0.432678 1.076001,0.792618 1.635981,1.028626 0.232868,0.09815 0.478573,0.162506 0.71786,0.243759 0.232641,0.05806 0.462498,0.12871 0.697922,0.174191 1.309992,0.253079 2.735957,0.244841 3.970924,-0.301665 0.599584,-0.265332 0.944527,-0.537336 1.478523,-0.903734 0.444039,-0.400336 0.803983,-0.689485 1.174158,-1.163683 0.183001,-0.234427 0.336149,-0.490828 0.496066,-0.741571 0.445746,-0.698909 0.830568,-1.42819 1.211663,-2.16333 0.31013,-0.684084 0.653136,-1.358086 0.885602,-2.074674 0.08595,-0.264948 0.158424,-0.534343 0.223626,-0.805146 0.123796,-0.514163 0.223412,-1.127929 0.314995,-1.650039 0.114867,-0.658529 0.207389,-1.319764 0.288245,-1.983105 0.03133,-0.256991 0.09733,-0.74824 0.11604,-1.014924 0.01112,-0.158548 0.01166,-0.317662 0.0175,-0.476493 0.03282,-0.785805 0.05485,-1.573153 0.02504,-2.359401 -0.03238,-0.203133 -0.01,-0.408357 -0.02207,-0.612198 -0.01525,-0.257364 -0.04412,-0.379487 -0.07368,-0.63271 -0.05242,-0.449128 0.01084,-0.05614 -0.06802,-0.498053 -0.523758,-2.081143 -0.0444,-0.736312 -5.319468,0.394381 -0.104507,0.0224 0.0206,0.212911 0.02416,0.319733 0.0058,0.175104 0.0022,0.350397 0.0041,0.525588 0.01961,1.81374 -0.0024,-0.661267 0.0145,1.349224 0.0048,0.865473 0.01977,1.731121 0.04789,2.596172 0.01016,0.312561 0.02791,0.624857 0.03677,0.937457 0.01175,0.414597 0.02094,1.362944 0.0258,1.787529 -0.0013,1.338121 0.05357,2.67682 0.02609,4.014758 9.07e-4,0.464562 0.01087,0.92887 -0.0097,1.393182 -0.0061,0.137196 -0.01869,0.274057 -0.0244,0.411269 -0.03613,0.868996 0.02252,-0.07149 -0.03339,0.74899 -0.01758,0.380696 -0.072,0.758364 -0.106667,1.137589 -0.01985,0.217189 -0.02935,0.435201 -0.04472,0.652753 -0.01455,0.118605 -0.03216,0.236874 -0.04366,0.355814 -0.01304,0.134819 -0.01633,0.270475 -0.02993,0.405238 -0.07867,0.779909 -0.02331,-0.03657 -0.09954,0.824751 -0.02982,0.336922 -0.04664,0.674874 -0.07254,1.012119 -0.06167,0.965182 -0.01677,0.14353 -0.04914,1.15123 -0.0067,0.207936 -0.01922,0.41566 -0.02552,0.623607 -0.02086,0.688436 -0.01865,1.377358 -0.02048,2.066015 -0.0015,0.221943 -0.0059,0.443887 -0.0044,0.66583 0.0015,0.213556 0.01038,0.427003 0.01331,0.640544 0.01023,0.746519 0.0093,1.49265 0.03278,2.238943 -0.0093,0.470013 0.0027,0.940431 -0.0019,1.410371 -0.0013,0.134783 -0.01043,0.269394 -0.01299,0.404159 -0.01171,0.616404 0.01447,0.110374 -0.0213,0.670189 -0.108726,0.09777 -0.118618,0.118005 -0.0074,-0.342879 0.05569,-0.230731 0.146692,-0.45171 0.23181,-0.673279 0.006,-0.01555 0.267067,-0.374072 0.08788,-0.46989 -0.114293,-0.06112 -0.254099,-0.05126 -0.381148,-0.07688 0.307499,6.98e-4 0.785312,0.277295 0.922499,0.0021 0.134198,-0.269206 -0.601528,-0.01974 -0.901298,-0.04462 -0.357807,-0.0297 -0.714825,-0.07013 -1.070514,-0.119051 -0.426388,-0.05865 -0.852449,-0.122048 -1.27506,-0.203576 -1.189384,-0.22945 -1.973196,-0.455915 -3.160541,-0.765479 -2.061348,-0.583036 -4.088568,-1.278729 -6.09676,-2.022736 -0.607354,-0.225016 -1.209927,-0.46275 -1.816225,-0.690593 0,0 -2.75678,4.209176 -2.75678,4.209176 v 0 c 2.25669,0.712081 -0.7403302,-0.228817 1.919467,0.587789 0.428671,0.13161 0.855289,0.269824 1.28352,0.402856 1.661955,0.516291 3.324948,1.02991 4.963935,1.616743 0.577444,0.19573 1.152077,0.399956 1.732332,0.587191 0.804133,0.259475 2.152963,0.661036 2.997751,0.87041 0.440042,0.10906 1.846616,0.416282 2.347216,0.45357 0.882238,0.06572 1.768119,0.06637 2.652178,0.09955 0.817133,-0.093 1.231423,-0.06133 1.97709,-0.462233 0.313387,-0.16849 0.622227,-0.367867 0.859431,-0.633074 0.564035,-0.630623 0.734393,-1.122339 0.864127,-1.897838 0.02768,-0.165476 0.01509,-0.335213 0.02264,-0.502819 -0.06053,-0.623282 -0.0053,0.0048 -0.04642,-0.688623 -0.0083,-0.139595 -0.02324,-0.278745 -0.03113,-0.418361 -0.02763,-0.48886 -0.04358,-0.978467 -0.08841,-1.466388 -0.02595,-0.54817 -0.06709,-1.093794 -0.111401,-1.640778 -0.01513,-0.186709 -0.03467,-0.373094 -0.04617,-0.560061 -0.01234,-0.200628 -0.01597,-0.4017 -0.02536,-0.602488 -0.01005,-0.214918 -0.02197,-0.429744 -0.03296,-0.644617 -0.03079,-0.824663 -0.06074,-1.652744 -0.03444,-2.478038 0.0058,-0.182797 0.02056,-0.365213 0.02825,-0.547941 0.007,-0.167626 0.01064,-0.33538 0.01596,-0.503071 0.03822,-0.84036 0.124333,-1.677842 0.177902,-2.517278 0.0095,-0.09872 0.05795,-0.593167 0.06416,-0.701866 0.0059,-0.103889 0.0032,-0.208123 0.0079,-0.312077 0.0051,-0.113288 0.01808,-0.226178 0.02145,-0.339531 0.0071,-0.240407 -0.01404,-0.481233 0.0073,-0.721502 -0.0357,-0.750794 -0.0032,0.05336 -0.01665,-0.740325 -0.0023,-0.136361 -0.01134,-0.272552 -0.01372,-0.408911 -0.0083,-0.475054 0.0168,-0.949239 0.02521,-1.424091 -0.01148,-1.351493 0.0071,-2.703182 -2.66e-4,-4.054729 7.01e-4,-0.445564 -1.02e-4,-1.338835 0.0098,-1.776577 0.0069,-0.307063 0.02263,-0.613866 0.03292,-0.920834 0.02743,-0.817831 0.04503,-1.636546 0.116696,-2.45217 0.05079,-0.582487 0.05416,-0.694371 0.12534,-1.250025 0.01837,-0.143367 0.03446,-0.287277 0.06212,-0.429144 0.01726,-0.08851 0.162388,-0.26633 0.07238,-0.260681 -5.357115,0.336195 -4.854259,2.30834 -5.261896,0.266249 0.06686,0.02661 0.08806,0.188095 0.09944,0.245885 0.0425,0.215737 0.0733,0.434757 0.09074,0.653888 0.007,0.09717 0.01219,0.194489 0.0211,0.291503 0.009,0.09838 0.02603,0.196 0.0327,0.294566 0.0074,0.110028 0.0049,0.22052 0.0096,0.3307 0.01578,0.36995 0.02821,0.739348 0.0377,1.109601 -0.0054,0.405374 0.0091,0.81291 -0.0086,1.217923 -0.0077,0.175844 -0.02517,0.351122 -0.03707,0.52673 -0.05905,0.871274 -0.01296,0.323757 -0.100221,1.231246 -0.07391,0.540501 -0.08621,0.720775 -0.204523,1.244655 -0.171148,0.757817 -0.451466,1.488317 -0.794271,2.184053 -0.256699,0.535649 -0.525078,1.12745 -0.882844,1.605331 -0.07981,0.106604 -0.175825,0.200304 -0.270015,0.294444 -0.08797,0.08792 -0.176837,0.176006 -0.275915,0.251195 -0.09993,0.07584 -0.212501,0.133394 -0.318751,0.20009 -0.326562,0.157445 -0.283472,0.167209 -0.629182,0.22197 -0.106258,0.01683 -0.428613,0.02767 -0.321129,0.0323 0.38558,0.01662 0.774178,-0.03839 1.157807,0.0038 0.11045,0.01214 -0.210804,0.0783 -0.321482,0.08813 -0.140764,0.01251 -0.282259,-0.01462 -0.423388,-0.02194 -0.08908,-0.01125 -0.635516,-0.08923 -0.757631,-0.07383 -0.06104,0.0077 -0.117718,0.04424 -0.163845,0.08495 -0.04845,0.04275 -0.04723,0.15927 -0.111844,0.158331 -0.245037,-0.0036 -0.259265,-0.676919 -0.378141,-0.630485 -0.05529,-0.229541 -0.121452,-0.456732 -0.165858,-0.688623 -0.0843,-0.440208 -0.220495,-1.491375 -0.246788,-1.906393 -0.08109,-1.279949 0.03164,-2.558991 0.224965,-3.82407 0.176267,-1.25531 0.177443,-1.33251 0.385412,-2.553232 0.06186,-0.363114 0.118499,-0.727387 0.19514,-1.087671 0.128805,-0.605502 0.307202,-1.204701 0.488647,-1.796301 z" />
  <path
     style="fill:url(#path4Gradient)"
     id="path5"
     d="m 35.259543,14.10894 c -0.01013,0.161325 -0.0259,0.322395 -0.03041,0.483975 -0.0054,0.194168 0.0031,0.388502 6.57e-4,0.58273 -0.0031,0.253544 -0.03867,1.646754 -0.04492,1.806095 -0.130237,3.321552 0.0098,-1.178562 -0.09803,2.536699 -0.0067,0.500209 -0.01911,1.000374 -0.01995,1.500625 -0.0021,1.26796 0.01882,1.859341 0.06777,3.125437 0.02899,0.749958 0.09029,1.935921 0.11231,2.704463 0.01048,0.36583 0.01222,0.731859 0.01833,1.097789 0.07113,0.795738 0.06981,1.232504 0.30171,2.005484 0.19414,0.647119 0.487855,1.262076 0.864161,1.822522 0.370619,0.551977 0.665133,0.814948 1.120685,1.284071 0.694311,0.584638 1.466356,1.087633 2.322442,1.400722 0.567175,0.207429 0.664308,0.201013 1.278378,0.324372 0.739502,-0.01172 1.480733,0.01674 2.218505,-0.03514 0.221225,-0.01556 0.43085,-0.105738 0.644223,-0.16619 0.467924,-0.132569 0.600369,-0.183181 1.037695,-0.374004 0.156009,-0.06807 0.31474,-0.131469 0.463786,-0.213677 0.177891,-0.09812 0.343253,-0.217411 0.514879,-0.326116 0.16456,-0.133904 0.342854,-0.252509 0.49368,-0.401713 0.339008,-0.335363 0.73291,-0.865805 0.958809,-1.27951 0.425442,-0.779143 0.693128,-1.692191 0.968993,-2.533342 0.228665,-0.726615 0.427933,-1.461544 0.612944,-2.20028 0.05948,-0.237511 0.125563,-0.473545 0.176051,-0.713129 0.104546,-0.496117 0.178057,-1.0683 0.249905,-1.567687 0.05742,-0.545613 0.151284,-1.086544 0.216076,-1.631181 0.03028,-0.25452 0.04975,-0.510218 0.07712,-0.765068 0.06538,-0.60882 0.138831,-1.216936 0.207408,-1.825417 0.03991,-0.568245 0.125038,-1.131359 0.158328,-1.69983 0.02813,-0.380686 0.04474,-1.409554 -0.250137,-1.434746 -1.631838,-0.139413 -3.278004,0.271734 -4.868469,0.662571 -0.07686,0.01889 -0.04907,0.904794 -0.04799,0.987876 0.09204,0.868949 0.175761,1.738115 0.258952,2.607945 0.0541,1.197957 0.18038,2.391321 0.229786,3.589413 0.01153,0.162455 0.02256,0.324946 0.03459,0.487364 0.03036,0.40974 0.04781,0.514817 0.05186,0.924912 0.0062,0.630007 -0.02562,1.261284 -0.04947,1.890584 -0.07012,1.382295 -0.115564,2.765481 -0.159954,4.148774 0.0138,0.829589 -0.01082,1.660052 0.04719,2.488493 0.02785,0.397765 0.07121,0.794299 0.104035,1.191685 0.04795,0.581033 0.13796,1.156849 0.213974,1.734351 0.06913,0.525228 0.121606,1.053076 0.174054,1.58016 0.023,0.184444 0.04885,0.368554 0.069,0.553331 0.06078,0.557484 0.09972,1.1174 0.143354,1.676368 0.05703,0.730603 0.03487,0.291675 0.05789,0.985865 0.0045,0.126799 0.01736,0.253571 0.01365,0.380398 -0.002,0.06891 0.0081,0.147581 -0.03075,0.204531 -0.02142,0.03139 -0.03297,-0.07065 -0.0347,-0.108615 -0.0053,-0.117079 -0.0014,-0.235115 0.01379,-0.351328 0.0011,-0.0085 0.11843,-0.497119 0.128787,-0.540327 0.102518,-0.235171 -0.653931,-0.190299 -0.481318,-0.237142 0.272211,-0.07387 1.124462,0.0118 0.845614,-0.03062 -0.344314,-0.05238 -0.696798,0.01348 -1.044825,3.19e-4 -0.863565,-0.03265 -1.537535,-0.125524 -2.398414,-0.222646 -1.758983,-0.227897 -3.498204,-0.582034 -5.214436,-1.027913 -0.397072,-0.10316 -0.790209,-0.220915 -1.185314,-0.331372 0,0 -2.521301,4.391593 -2.521301,4.391593 v 0 c 2.27163,0.56928 0.215213,0.04914 2.61021,0.669813 0.77143,0.199918 2.059971,0.53531 2.84445,0.701677 0.454723,0.09643 0.913886,0.170598 1.370829,0.255897 1.584814,0.250491 1.067232,0.17986 2.629303,0.383416 1.703968,0.222048 1.888599,0.282324 4.074241,0.153522 0.393293,-0.02318 0.783827,-0.111689 1.158852,-0.232406 0.348174,-0.112075 0.663804,-0.30742 0.995706,-0.461129 0.255883,-0.220336 0.542395,-0.409445 0.76765,-0.661008 0.59786,-0.667688 0.849864,-1.484995 0.882954,-2.363866 0.0058,-0.154383 -0.06055,-0.77481 -0.07709,-0.941849 -0.151334,-1.107795 0.01457,0.145613 -0.125747,-1.050648 -0.09043,-0.770995 -0.221588,-1.536678 -0.302052,-2.308891 -0.157667,-1.085814 -0.354459,-2.16544 -0.534209,-3.247745 -0.121028,-0.846934 -0.03665,-0.196182 -0.124453,-1.054504 -0.07403,-0.723705 -0.155794,-1.448282 -0.154625,-2.177049 -0.04264,-1.351085 -0.06265,-2.702572 -0.04403,-4.054353 0.0165,-1.210192 0.06362,-2.421848 -0.0085,-3.631206 -0.0467,-0.575161 -0.07812,-1.149209 -0.08977,-1.726322 -0.01942,-0.962037 0.0037,-0.247393 0.0061,-1.231687 4.71e-4,-0.190564 -0.0057,-0.381086 -0.0085,-0.571629 5.32e-4,-0.240716 0.0044,-0.746235 -0.0051,-0.995768 -0.0054,-0.142636 -0.02119,-0.284727 -0.02793,-0.427308 -0.0064,-0.135177 -0.0062,-0.270599 -0.01147,-0.405822 -0.0046,-0.117056 -0.0172,-0.23382 -0.01831,-0.350961 -6.69e-4,-0.07057 0.0087,-0.140882 0.01298,-0.211323 0.0039,-0.03152 0.0142,-0.126199 0.01165,-0.09455 -0.0049,0.06053 0.04151,0.172901 -0.01864,0.181224 -1.599495,0.22132 -3.214842,0.668003 -4.819539,0.488229 -0.362033,-0.04056 -0.237543,-1.520701 -0.220888,-0.936843 0.0067,0.530441 0.0499,1.059751 0.03464,1.59073 0.0056,0.564519 0.01311,1.131031 -0.01795,1.695039 -0.01325,0.240614 -0.03918,0.480369 -0.0564,0.720732 -0.08352,1.165851 -0.0039,0.344999 -0.131392,1.496659 -0.111303,0.81862 -0.05204,0.478565 -0.207167,1.258531 -0.03825,0.192345 -0.06996,0.386174 -0.116455,0.576694 -0.04983,0.204214 -0.113175,0.404905 -0.172311,0.606622 -0.2027,0.691424 -0.176112,0.588706 -0.411511,1.281114 -0.177596,0.443612 -0.283561,0.757504 -0.517452,1.167317 -0.06972,0.122164 -0.245134,0.376152 -0.380332,0.4769 -0.07702,0.0574 -0.192805,0.04529 -0.267338,0.107577 -0.131913,0.03421 -0.26068,0.0803 -0.393358,0.111412 -0.08864,0.02079 -0.179049,0.03323 -0.268941,0.04766 -0.09382,0.01506 -0.187278,0.03502 -0.28212,0.04083 -0.358597,0.02196 -2.080628,-0.266471 1.077706,0.01472 -0.05891,0.02877 -0.112951,0.07114 -0.176731,0.08632 -0.143266,0.0341 -0.381182,0.0058 -0.520021,-0.01105 -0.09898,-0.01201 -0.199051,-0.02008 -0.295899,-0.04378 -0.188975,-0.04625 -0.43602,-0.15611 -0.614885,-0.229937 -0.104575,-0.05493 -0.214861,-0.10015 -0.313726,-0.164799 -0.274774,-0.179678 -0.667206,-0.542456 -0.822348,-0.832317 -0.235448,-0.439902 -0.260411,-0.780663 -0.364575,-1.279994 -0.04783,-0.334872 -0.109334,-0.668075 -0.143493,-1.004617 -0.07401,-0.729105 -0.111836,-1.859684 -0.120853,-2.575295 -0.01805,-1.43249 0.03153,-2.865896 0.186921,-4.290722 0.05827,-0.472858 0.234099,-1.928703 0.310216,-2.440178 0.04834,-0.324861 0.106896,-0.648139 0.16432,-0.971519 0.05937,-0.334331 0.152599,-0.875608 0.258454,-1.231526 0.0073,-0.02456 0.02873,-0.04245 0.04309,-0.06367 z" />
</svg>
